# xmcd
#
# Track frame offsets:
#	150
#	11822
#	22517
#	32005
#
# Disc length: 614 seconds
#
# Revision: 1
# Processed by: cddbd v1.5.2PL0 Copyright (c) Steve Scherf et al.
# Submitted via: audiograbber 1.83.01
#
DISCID=1e026404
DTITLE=Carla Lodders - Carla Lodders - Dans op de Deel
DYEAR=1979
DGENRE=Schlager
TTITLE0=Dans op de Deel
TTITLE1=De Jäger
TTITLE2=Kling Klang Kloria
TTITLE3=Abendfreeden
EXTD=
EXTT0=
EXTT1=
EXTT2=
EXTT3=
PLAYORDER=
